<mxfile host="app.diagrams.net" agent="Mozilla/5.0 (Windows NT 10.0; Win64; x64) AppleWebKit/537.36 (KHTML, like Gecko) Chrome/133.0.0.0 Safari/537.36" version="26.0.11">
  <diagram id="C5RBs43oDa-KdzZeNtuy" name="Page-1">
    <mxGraphModel dx="979" dy="499" grid="1" gridSize="10" guides="1" tooltips="1" connect="1" arrows="1" fold="1" page="1" pageScale="1" pageWidth="1169" pageHeight="827" math="0" shadow="0">
      <root>
        <mxCell id="WIyWlLk6GJQsqaUBKTNV-0" />
        <mxCell id="WIyWlLk6GJQsqaUBKTNV-1" parent="WIyWlLk6GJQsqaUBKTNV-0" />
        <mxCell id="aYfPXwyvseCjfm_76mP0-208" value="" style="rounded=0;whiteSpace=wrap;html=1;" vertex="1" parent="WIyWlLk6GJQsqaUBKTNV-1">
          <mxGeometry x="1310" y="841" width="470" height="289" as="geometry" />
        </mxCell>
        <mxCell id="aYfPXwyvseCjfm_76mP0-207" value="" style="rounded=0;whiteSpace=wrap;html=1;" vertex="1" parent="WIyWlLk6GJQsqaUBKTNV-1">
          <mxGeometry x="1209" y="466" width="450" height="240" as="geometry" />
        </mxCell>
        <mxCell id="aYfPXwyvseCjfm_76mP0-206" value="" style="rounded=0;whiteSpace=wrap;html=1;" vertex="1" parent="WIyWlLk6GJQsqaUBKTNV-1">
          <mxGeometry x="250" y="410" width="670" height="450" as="geometry" />
        </mxCell>
        <mxCell id="aYfPXwyvseCjfm_76mP0-43" value="" style="group" vertex="1" connectable="0" parent="WIyWlLk6GJQsqaUBKTNV-1">
          <mxGeometry x="98" y="10" width="666" height="370" as="geometry" />
        </mxCell>
        <mxCell id="aYfPXwyvseCjfm_76mP0-33" value="" style="rounded=0;whiteSpace=wrap;html=1;" vertex="1" parent="aYfPXwyvseCjfm_76mP0-43">
          <mxGeometry width="666" height="370" as="geometry" />
        </mxCell>
        <mxCell id="aYfPXwyvseCjfm_76mP0-5" style="edgeStyle=orthogonalEdgeStyle;rounded=0;orthogonalLoop=1;jettySize=auto;html=1;exitX=1;exitY=0.5;exitDx=0;exitDy=0;" edge="1" parent="aYfPXwyvseCjfm_76mP0-43" source="aYfPXwyvseCjfm_76mP0-0" target="aYfPXwyvseCjfm_76mP0-1">
          <mxGeometry relative="1" as="geometry" />
        </mxCell>
        <mxCell id="aYfPXwyvseCjfm_76mP0-42" style="edgeStyle=orthogonalEdgeStyle;rounded=0;orthogonalLoop=1;jettySize=auto;html=1;exitX=0.5;exitY=0;exitDx=0;exitDy=0;entryX=0.5;entryY=1;entryDx=0;entryDy=0;dashed=1;dashPattern=1 4;endArrow=none;startFill=0;" edge="1" parent="aYfPXwyvseCjfm_76mP0-43" source="aYfPXwyvseCjfm_76mP0-0" target="aYfPXwyvseCjfm_76mP0-17">
          <mxGeometry relative="1" as="geometry" />
        </mxCell>
        <mxCell id="aYfPXwyvseCjfm_76mP0-0" value="&lt;font style=&quot;font-size: 16px;&quot;&gt;Application&lt;/font&gt;" style="rounded=1;whiteSpace=wrap;html=1;fillColor=#dae8fc;strokeColor=#6c8ebf;" vertex="1" parent="aYfPXwyvseCjfm_76mP0-43">
          <mxGeometry x="26" y="100" width="90" height="60" as="geometry" />
        </mxCell>
        <mxCell id="aYfPXwyvseCjfm_76mP0-9" style="edgeStyle=orthogonalEdgeStyle;rounded=0;orthogonalLoop=1;jettySize=auto;html=1;exitX=1;exitY=0.5;exitDx=0;exitDy=0;entryX=0;entryY=0.5;entryDx=0;entryDy=0;" edge="1" parent="aYfPXwyvseCjfm_76mP0-43" source="aYfPXwyvseCjfm_76mP0-1" target="aYfPXwyvseCjfm_76mP0-2">
          <mxGeometry relative="1" as="geometry" />
        </mxCell>
        <mxCell id="aYfPXwyvseCjfm_76mP0-1" value="&lt;font style=&quot;font-size: 16px;&quot;&gt;&lt;b&gt;NIA&lt;/b&gt;&lt;/font&gt;&lt;div&gt;&lt;font style=&quot;font-size: 16px;&quot;&gt;&lt;b&gt;Monitor&lt;/b&gt;&lt;/font&gt;&lt;/div&gt;" style="rounded=1;whiteSpace=wrap;html=1;fillColor=#f8cecc;strokeColor=#b85450;" vertex="1" parent="aYfPXwyvseCjfm_76mP0-43">
          <mxGeometry x="192" y="100" width="90" height="60" as="geometry" />
        </mxCell>
        <mxCell id="aYfPXwyvseCjfm_76mP0-10" style="edgeStyle=orthogonalEdgeStyle;rounded=0;orthogonalLoop=1;jettySize=auto;html=1;exitX=1;exitY=0.5;exitDx=0;exitDy=0;" edge="1" parent="aYfPXwyvseCjfm_76mP0-43" source="aYfPXwyvseCjfm_76mP0-2" target="aYfPXwyvseCjfm_76mP0-3">
          <mxGeometry relative="1" as="geometry" />
        </mxCell>
        <mxCell id="aYfPXwyvseCjfm_76mP0-2" value="&lt;font style=&quot;font-size: 16px;&quot;&gt;&lt;b&gt;NIA&amp;nbsp;&lt;/b&gt;&lt;/font&gt;&lt;div&gt;&lt;font style=&quot;font-size: 16px;&quot;&gt;&lt;b&gt;Agent&lt;/b&gt;&lt;/font&gt;&lt;/div&gt;" style="rounded=1;whiteSpace=wrap;html=1;fillColor=#f8cecc;strokeColor=#b85450;" vertex="1" parent="aYfPXwyvseCjfm_76mP0-43">
          <mxGeometry x="387" y="100" width="90" height="60" as="geometry" />
        </mxCell>
        <mxCell id="aYfPXwyvseCjfm_76mP0-15" style="edgeStyle=orthogonalEdgeStyle;rounded=0;orthogonalLoop=1;jettySize=auto;html=1;exitX=0.5;exitY=1;exitDx=0;exitDy=0;entryX=0.5;entryY=1;entryDx=0;entryDy=0;dashed=1;" edge="1" parent="aYfPXwyvseCjfm_76mP0-43" source="aYfPXwyvseCjfm_76mP0-3" target="aYfPXwyvseCjfm_76mP0-0">
          <mxGeometry relative="1" as="geometry" />
        </mxCell>
        <mxCell id="aYfPXwyvseCjfm_76mP0-3" value="&lt;font style=&quot;font-size: 16px;&quot;&gt;Resource&lt;/font&gt;" style="rounded=1;whiteSpace=wrap;html=1;fillColor=#dae8fc;strokeColor=#6c8ebf;" vertex="1" parent="aYfPXwyvseCjfm_76mP0-43">
          <mxGeometry x="560" y="100" width="90" height="60" as="geometry" />
        </mxCell>
        <mxCell id="aYfPXwyvseCjfm_76mP0-6" value="request access resource" style="text;html=1;align=center;verticalAlign=middle;whiteSpace=wrap;rounded=0;fontSize=10;" vertex="1" parent="aYfPXwyvseCjfm_76mP0-43">
          <mxGeometry x="110" y="100" width="89" height="30" as="geometry" />
        </mxCell>
        <mxCell id="aYfPXwyvseCjfm_76mP0-7" value="request HMAC with signature" style="text;html=1;align=center;verticalAlign=middle;whiteSpace=wrap;rounded=0;fontSize=10;" vertex="1" parent="aYfPXwyvseCjfm_76mP0-43">
          <mxGeometry x="278" y="100" width="110" height="30" as="geometry" />
        </mxCell>
        <mxCell id="aYfPXwyvseCjfm_76mP0-8" value="request with&lt;div&gt;credential obfuscated&lt;/div&gt;" style="text;html=1;align=center;verticalAlign=middle;whiteSpace=wrap;rounded=0;fontSize=10;" vertex="1" parent="aYfPXwyvseCjfm_76mP0-43">
          <mxGeometry x="274" y="130" width="120" height="30" as="geometry" />
        </mxCell>
        <mxCell id="aYfPXwyvseCjfm_76mP0-11" value="validate HMAC&amp;nbsp;" style="text;html=1;align=center;verticalAlign=middle;whiteSpace=wrap;rounded=0;fontSize=10;" vertex="1" parent="aYfPXwyvseCjfm_76mP0-43">
          <mxGeometry x="474" y="106" width="89" height="30" as="geometry" />
        </mxCell>
        <mxCell id="aYfPXwyvseCjfm_76mP0-12" value="request resource" style="text;html=1;align=center;verticalAlign=middle;whiteSpace=wrap;rounded=0;fontSize=10;" vertex="1" parent="aYfPXwyvseCjfm_76mP0-43">
          <mxGeometry x="473" y="126" width="89" height="26" as="geometry" />
        </mxCell>
        <mxCell id="aYfPXwyvseCjfm_76mP0-16" value="active connection" style="text;html=1;align=center;verticalAlign=middle;whiteSpace=wrap;rounded=0;fontSize=10;" vertex="1" parent="aYfPXwyvseCjfm_76mP0-43">
          <mxGeometry x="291.5" y="174" width="89" height="30" as="geometry" />
        </mxCell>
        <mxCell id="aYfPXwyvseCjfm_76mP0-17" value="non-interactive process generated by a request from the client" style="rounded=0;whiteSpace=wrap;html=1;fontSize=10;dashed=1;dashPattern=1 4;strokeColor=default;" vertex="1" parent="aYfPXwyvseCjfm_76mP0-43">
          <mxGeometry x="12" y="30" width="120" height="40" as="geometry" />
        </mxCell>
        <mxCell id="aYfPXwyvseCjfm_76mP0-21" style="edgeStyle=orthogonalEdgeStyle;rounded=0;orthogonalLoop=1;jettySize=auto;html=1;exitX=0.5;exitY=1;exitDx=0;exitDy=0;entryX=0.5;entryY=0;entryDx=0;entryDy=0;dashed=1;dashPattern=1 4;endArrow=none;startFill=0;" edge="1" parent="aYfPXwyvseCjfm_76mP0-43" source="aYfPXwyvseCjfm_76mP0-20" target="aYfPXwyvseCjfm_76mP0-1">
          <mxGeometry relative="1" as="geometry" />
        </mxCell>
        <mxCell id="aYfPXwyvseCjfm_76mP0-20" value="authentication algoritm" style="rounded=0;whiteSpace=wrap;html=1;fontSize=10;dashed=1;dashPattern=1 4;strokeColor=default;" vertex="1" parent="aYfPXwyvseCjfm_76mP0-43">
          <mxGeometry x="177" y="30" width="120" height="40" as="geometry" />
        </mxCell>
        <mxCell id="aYfPXwyvseCjfm_76mP0-23" style="edgeStyle=orthogonalEdgeStyle;rounded=0;orthogonalLoop=1;jettySize=auto;html=1;exitX=0.5;exitY=1;exitDx=0;exitDy=0;entryX=0.5;entryY=0;entryDx=0;entryDy=0;endArrow=none;startFill=0;dashed=1;dashPattern=1 4;" edge="1" parent="aYfPXwyvseCjfm_76mP0-43" source="aYfPXwyvseCjfm_76mP0-22" target="aYfPXwyvseCjfm_76mP0-2">
          <mxGeometry relative="1" as="geometry" />
        </mxCell>
        <mxCell id="aYfPXwyvseCjfm_76mP0-22" value="authentication algoritm" style="rounded=0;whiteSpace=wrap;html=1;fontSize=10;dashed=1;dashPattern=1 4;strokeColor=default;" vertex="1" parent="aYfPXwyvseCjfm_76mP0-43">
          <mxGeometry x="372" y="30" width="120" height="40" as="geometry" />
        </mxCell>
        <mxCell id="aYfPXwyvseCjfm_76mP0-25" style="edgeStyle=orthogonalEdgeStyle;rounded=0;orthogonalLoop=1;jettySize=auto;html=1;entryX=0.5;entryY=1;entryDx=0;entryDy=0;dashed=1;dashPattern=1 4;endArrow=none;startFill=0;" edge="1" parent="aYfPXwyvseCjfm_76mP0-43" source="aYfPXwyvseCjfm_76mP0-24" target="aYfPXwyvseCjfm_76mP0-1">
          <mxGeometry relative="1" as="geometry" />
        </mxCell>
        <mxCell id="aYfPXwyvseCjfm_76mP0-39" style="edgeStyle=orthogonalEdgeStyle;rounded=0;orthogonalLoop=1;jettySize=auto;html=1;exitX=0.5;exitY=1;exitDx=0;exitDy=0;" edge="1" parent="aYfPXwyvseCjfm_76mP0-43" source="aYfPXwyvseCjfm_76mP0-24">
          <mxGeometry relative="1" as="geometry">
            <mxPoint x="237" y="290" as="targetPoint" />
          </mxGeometry>
        </mxCell>
        <mxCell id="aYfPXwyvseCjfm_76mP0-24" value="obfuscation algoritm" style="rounded=0;whiteSpace=wrap;html=1;fontSize=10;dashed=1;dashPattern=1 4;strokeColor=default;" vertex="1" parent="aYfPXwyvseCjfm_76mP0-43">
          <mxGeometry x="177" y="209" width="120" height="40" as="geometry" />
        </mxCell>
        <mxCell id="aYfPXwyvseCjfm_76mP0-27" style="edgeStyle=orthogonalEdgeStyle;rounded=0;orthogonalLoop=1;jettySize=auto;html=1;entryX=0.5;entryY=1;entryDx=0;entryDy=0;dashed=1;dashPattern=1 4;endArrow=none;startFill=0;" edge="1" parent="aYfPXwyvseCjfm_76mP0-43" source="aYfPXwyvseCjfm_76mP0-26" target="aYfPXwyvseCjfm_76mP0-2">
          <mxGeometry relative="1" as="geometry" />
        </mxCell>
        <mxCell id="aYfPXwyvseCjfm_76mP0-26" value="deobfuscation algoritm" style="rounded=0;whiteSpace=wrap;html=1;fontSize=10;dashed=1;dashPattern=1 4;strokeColor=default;" vertex="1" parent="aYfPXwyvseCjfm_76mP0-43">
          <mxGeometry x="372" y="209" width="120" height="40" as="geometry" />
        </mxCell>
        <mxCell id="aYfPXwyvseCjfm_76mP0-28" value="&lt;font style=&quot;font-size: 15px;&quot;&gt;Password Vault&lt;/font&gt;" style="ellipse;whiteSpace=wrap;html=1;fillColor=#dae8fc;strokeColor=#6c8ebf;" vertex="1" parent="aYfPXwyvseCjfm_76mP0-43">
          <mxGeometry x="199" y="290" width="77.5" height="70" as="geometry" />
        </mxCell>
        <mxCell id="aYfPXwyvseCjfm_76mP0-32" value="get credential" style="text;html=1;align=center;verticalAlign=middle;whiteSpace=wrap;rounded=0;fontSize=10;" vertex="1" parent="aYfPXwyvseCjfm_76mP0-43">
          <mxGeometry x="235" y="254" width="77" height="30" as="geometry" />
        </mxCell>
        <mxCell id="aYfPXwyvseCjfm_76mP0-103" style="edgeStyle=orthogonalEdgeStyle;rounded=0;orthogonalLoop=1;jettySize=auto;html=1;exitX=1;exitY=0.5;exitDx=0;exitDy=0;" edge="1" parent="WIyWlLk6GJQsqaUBKTNV-1" source="aYfPXwyvseCjfm_76mP0-104" target="aYfPXwyvseCjfm_76mP0-106">
          <mxGeometry relative="1" as="geometry" />
        </mxCell>
        <mxCell id="aYfPXwyvseCjfm_76mP0-104" value="&lt;font style=&quot;font-size: 16px;&quot;&gt;Application&lt;/font&gt;" style="rounded=1;whiteSpace=wrap;html=1;fillColor=#dae8fc;strokeColor=#6c8ebf;" vertex="1" parent="WIyWlLk6GJQsqaUBKTNV-1">
          <mxGeometry x="278.5" y="1070" width="90" height="60" as="geometry" />
        </mxCell>
        <mxCell id="aYfPXwyvseCjfm_76mP0-105" style="edgeStyle=orthogonalEdgeStyle;rounded=0;orthogonalLoop=1;jettySize=auto;html=1;exitX=1;exitY=0.5;exitDx=0;exitDy=0;entryX=0;entryY=0.5;entryDx=0;entryDy=0;" edge="1" parent="WIyWlLk6GJQsqaUBKTNV-1" source="aYfPXwyvseCjfm_76mP0-106" target="aYfPXwyvseCjfm_76mP0-108">
          <mxGeometry relative="1" as="geometry" />
        </mxCell>
        <mxCell id="aYfPXwyvseCjfm_76mP0-106" value="&lt;font style=&quot;font-size: 16px;&quot;&gt;&lt;b&gt;NIA&lt;/b&gt;&lt;/font&gt;&lt;div&gt;&lt;font style=&quot;font-size: 16px;&quot;&gt;&lt;b&gt;Monitor&lt;/b&gt;&lt;/font&gt;&lt;/div&gt;" style="rounded=1;whiteSpace=wrap;html=1;fillColor=#f8cecc;strokeColor=#b85450;" vertex="1" parent="WIyWlLk6GJQsqaUBKTNV-1">
          <mxGeometry x="444.5" y="1070" width="90" height="60" as="geometry" />
        </mxCell>
        <mxCell id="aYfPXwyvseCjfm_76mP0-107" style="edgeStyle=orthogonalEdgeStyle;rounded=0;orthogonalLoop=1;jettySize=auto;html=1;exitX=1;exitY=0.5;exitDx=0;exitDy=0;" edge="1" parent="WIyWlLk6GJQsqaUBKTNV-1" source="aYfPXwyvseCjfm_76mP0-108" target="aYfPXwyvseCjfm_76mP0-110">
          <mxGeometry relative="1" as="geometry" />
        </mxCell>
        <mxCell id="aYfPXwyvseCjfm_76mP0-108" value="&lt;font style=&quot;font-size: 16px;&quot;&gt;&lt;b&gt;NIA&amp;nbsp;&lt;/b&gt;&lt;/font&gt;&lt;div&gt;&lt;font style=&quot;font-size: 16px;&quot;&gt;&lt;b&gt;Agent&lt;/b&gt;&lt;/font&gt;&lt;/div&gt;" style="rounded=1;whiteSpace=wrap;html=1;fillColor=#f8cecc;strokeColor=#b85450;" vertex="1" parent="WIyWlLk6GJQsqaUBKTNV-1">
          <mxGeometry x="639.5" y="1070" width="90" height="60" as="geometry" />
        </mxCell>
        <mxCell id="aYfPXwyvseCjfm_76mP0-109" style="edgeStyle=orthogonalEdgeStyle;rounded=0;orthogonalLoop=1;jettySize=auto;html=1;exitX=0.5;exitY=1;exitDx=0;exitDy=0;entryX=0.5;entryY=1;entryDx=0;entryDy=0;dashed=1;" edge="1" parent="WIyWlLk6GJQsqaUBKTNV-1" source="aYfPXwyvseCjfm_76mP0-110" target="aYfPXwyvseCjfm_76mP0-104">
          <mxGeometry relative="1" as="geometry">
            <Array as="points">
              <mxPoint x="857.5" y="1150" />
              <mxPoint x="323.5" y="1150" />
            </Array>
          </mxGeometry>
        </mxCell>
        <mxCell id="aYfPXwyvseCjfm_76mP0-110" value="&lt;font style=&quot;font-size: 16px;&quot;&gt;Resource&lt;/font&gt;" style="rounded=1;whiteSpace=wrap;html=1;fillColor=#dae8fc;strokeColor=#6c8ebf;" vertex="1" parent="WIyWlLk6GJQsqaUBKTNV-1">
          <mxGeometry x="812.5" y="1070" width="90" height="60" as="geometry" />
        </mxCell>
        <mxCell id="aYfPXwyvseCjfm_76mP0-111" value="request access resource" style="text;html=1;align=center;verticalAlign=middle;whiteSpace=wrap;rounded=0;fontSize=10;" vertex="1" parent="WIyWlLk6GJQsqaUBKTNV-1">
          <mxGeometry x="362.5" y="1070" width="89" height="30" as="geometry" />
        </mxCell>
        <mxCell id="aYfPXwyvseCjfm_76mP0-112" value="request HMAC with signature" style="text;html=1;align=center;verticalAlign=middle;whiteSpace=wrap;rounded=0;fontSize=10;" vertex="1" parent="WIyWlLk6GJQsqaUBKTNV-1">
          <mxGeometry x="530.5" y="1070" width="110" height="30" as="geometry" />
        </mxCell>
        <mxCell id="aYfPXwyvseCjfm_76mP0-113" value="request with&amp;nbsp;&lt;div&gt;&lt;span style=&quot;background-color: transparent; color: light-dark(rgb(0, 0, 0), rgb(255, 255, 255));&quot;&gt;credential obfuscated&lt;/span&gt;&lt;/div&gt;" style="text;html=1;align=center;verticalAlign=middle;whiteSpace=wrap;rounded=0;fontSize=10;" vertex="1" parent="WIyWlLk6GJQsqaUBKTNV-1">
          <mxGeometry x="526.5" y="1100" width="120" height="30" as="geometry" />
        </mxCell>
        <mxCell id="aYfPXwyvseCjfm_76mP0-114" value="validate HMAC&amp;nbsp;" style="text;html=1;align=center;verticalAlign=middle;whiteSpace=wrap;rounded=0;fontSize=10;" vertex="1" parent="WIyWlLk6GJQsqaUBKTNV-1">
          <mxGeometry x="726.5" y="1076" width="89" height="30" as="geometry" />
        </mxCell>
        <mxCell id="aYfPXwyvseCjfm_76mP0-115" value="request resource" style="text;html=1;align=center;verticalAlign=middle;whiteSpace=wrap;rounded=0;fontSize=10;" vertex="1" parent="WIyWlLk6GJQsqaUBKTNV-1">
          <mxGeometry x="725.5" y="1096" width="89" height="26" as="geometry" />
        </mxCell>
        <mxCell id="aYfPXwyvseCjfm_76mP0-116" value="active connection" style="text;html=1;align=center;verticalAlign=middle;whiteSpace=wrap;rounded=0;fontSize=10;" vertex="1" parent="WIyWlLk6GJQsqaUBKTNV-1">
          <mxGeometry x="542.5" y="1145" width="89" height="30" as="geometry" />
        </mxCell>
        <mxCell id="aYfPXwyvseCjfm_76mP0-117" style="edgeStyle=orthogonalEdgeStyle;rounded=0;orthogonalLoop=1;jettySize=auto;html=1;exitX=0.5;exitY=1;exitDx=0;exitDy=0;entryX=0.5;entryY=0;entryDx=0;entryDy=0;dashed=1;dashPattern=1 4;endArrow=none;startFill=0;" edge="1" parent="WIyWlLk6GJQsqaUBKTNV-1" source="aYfPXwyvseCjfm_76mP0-118" target="aYfPXwyvseCjfm_76mP0-104">
          <mxGeometry relative="1" as="geometry" />
        </mxCell>
        <mxCell id="aYfPXwyvseCjfm_76mP0-118" value="&lt;font style=&quot;font-size: 9px;&quot;&gt;non-interactive process generated by a request from the client&lt;/font&gt;" style="rounded=0;whiteSpace=wrap;html=1;fontSize=10;dashed=1;dashPattern=1 4;strokeColor=default;" vertex="1" parent="WIyWlLk6GJQsqaUBKTNV-1">
          <mxGeometry x="263.5" y="980" width="120" height="40" as="geometry" />
        </mxCell>
        <mxCell id="aYfPXwyvseCjfm_76mP0-119" style="edgeStyle=orthogonalEdgeStyle;rounded=0;orthogonalLoop=1;jettySize=auto;html=1;exitX=0.5;exitY=1;exitDx=0;exitDy=0;entryX=0.5;entryY=0;entryDx=0;entryDy=0;dashed=1;dashPattern=1 4;endArrow=none;startFill=0;" edge="1" parent="WIyWlLk6GJQsqaUBKTNV-1" source="aYfPXwyvseCjfm_76mP0-127" target="aYfPXwyvseCjfm_76mP0-106">
          <mxGeometry relative="1" as="geometry" />
        </mxCell>
        <mxCell id="aYfPXwyvseCjfm_76mP0-121" style="edgeStyle=orthogonalEdgeStyle;rounded=0;orthogonalLoop=1;jettySize=auto;html=1;entryX=0.5;entryY=1;entryDx=0;entryDy=0;dashed=1;dashPattern=1 4;endArrow=none;startFill=0;" edge="1" parent="WIyWlLk6GJQsqaUBKTNV-1" source="aYfPXwyvseCjfm_76mP0-122" target="aYfPXwyvseCjfm_76mP0-106">
          <mxGeometry relative="1" as="geometry" />
        </mxCell>
        <mxCell id="aYfPXwyvseCjfm_76mP0-123" value="&lt;font style=&quot;font-size: 16px;&quot;&gt;Password Vault&lt;/font&gt;" style="ellipse;whiteSpace=wrap;html=1;fillColor=#dae8fc;strokeColor=#6c8ebf;align=center;" vertex="1" parent="WIyWlLk6GJQsqaUBKTNV-1">
          <mxGeometry x="554" y="1260" width="86" height="74" as="geometry" />
        </mxCell>
        <mxCell id="aYfPXwyvseCjfm_76mP0-124" style="edgeStyle=orthogonalEdgeStyle;rounded=0;orthogonalLoop=1;jettySize=auto;html=1;entryX=0.5;entryY=0;entryDx=0;entryDy=0;dashed=1;dashPattern=1 4;endArrow=none;startFill=0;" edge="1" parent="WIyWlLk6GJQsqaUBKTNV-1" source="aYfPXwyvseCjfm_76mP0-125" target="aYfPXwyvseCjfm_76mP0-123">
          <mxGeometry relative="1" as="geometry" />
        </mxCell>
        <mxCell id="aYfPXwyvseCjfm_76mP0-126" value="" style="group" vertex="1" connectable="0" parent="WIyWlLk6GJQsqaUBKTNV-1">
          <mxGeometry x="440" y="940" width="153" height="80" as="geometry" />
        </mxCell>
        <mxCell id="aYfPXwyvseCjfm_76mP0-127" value="&lt;b&gt;&amp;nbsp;authentication algorithm&lt;/b&gt;" style="rounded=0;whiteSpace=wrap;html=1;fontSize=10;dashed=1;dashPattern=1 4;strokeColor=default;fillColor=default;verticalAlign=top;align=center;" vertex="1" parent="aYfPXwyvseCjfm_76mP0-126">
          <mxGeometry width="153" height="80" as="geometry" />
        </mxCell>
        <mxCell id="aYfPXwyvseCjfm_76mP0-128" value="&lt;div&gt;&lt;font style=&quot;font-size: 9px;&quot;&gt;OTP, HTOP and HMAC-based&lt;/font&gt;&lt;/div&gt;&lt;div&gt;&lt;font style=&quot;font-size: 9px;&quot;&gt;&lt;font style=&quot;&quot;&gt;memory generated secret key and counter&amp;nbsp;&lt;/font&gt;&lt;span style=&quot;background-color: transparent; color: light-dark(rgb(0, 0, 0), rgb(255, 255, 255));&quot;&gt;generate HMAC A&lt;/span&gt;&lt;/font&gt;&lt;/div&gt;" style="rounded=0;whiteSpace=wrap;html=1;strokeWidth=0;" vertex="1" parent="aYfPXwyvseCjfm_76mP0-126">
          <mxGeometry x="5" y="22" width="144.12" height="50" as="geometry" />
        </mxCell>
        <mxCell id="aYfPXwyvseCjfm_76mP0-129" style="edgeStyle=orthogonalEdgeStyle;rounded=0;orthogonalLoop=1;jettySize=auto;html=1;exitX=0.5;exitY=1;exitDx=0;exitDy=0;entryX=0.461;entryY=-0.025;entryDx=0;entryDy=0;entryPerimeter=0;dashed=1;dashPattern=1 4;endArrow=none;startFill=0;" edge="1" parent="WIyWlLk6GJQsqaUBKTNV-1" source="aYfPXwyvseCjfm_76mP0-108" target="aYfPXwyvseCjfm_76mP0-133">
          <mxGeometry relative="1" as="geometry" />
        </mxCell>
        <mxCell id="aYfPXwyvseCjfm_76mP0-130" value="" style="group" vertex="1" connectable="0" parent="WIyWlLk6GJQsqaUBKTNV-1">
          <mxGeometry x="650" y="940" width="153" height="90" as="geometry" />
        </mxCell>
        <mxCell id="aYfPXwyvseCjfm_76mP0-131" value="&lt;b&gt;&amp;nbsp;authentication algorithm&lt;/b&gt;" style="rounded=0;whiteSpace=wrap;html=1;fontSize=10;dashed=1;dashPattern=1 4;strokeColor=default;fillColor=default;verticalAlign=top;align=center;" vertex="1" parent="aYfPXwyvseCjfm_76mP0-130">
          <mxGeometry width="153" height="90" as="geometry" />
        </mxCell>
        <mxCell id="aYfPXwyvseCjfm_76mP0-132" value="&lt;div&gt;&lt;font style=&quot;font-size: 9px;&quot;&gt;OTP, HTOP and HMAC-based&lt;/font&gt;&lt;/div&gt;&lt;div&gt;&lt;font style=&quot;font-size: 9px;&quot;&gt;&lt;font style=&quot;&quot;&gt;memory generated secret key and counter&amp;nbsp;&lt;/font&gt;&lt;span style=&quot;background-color: transparent; color: light-dark(rgb(0, 0, 0), rgb(255, 255, 255));&quot;&gt;generate HMAC B and compares it with HMAC A&lt;/span&gt;&lt;/font&gt;&lt;/div&gt;" style="rounded=0;whiteSpace=wrap;html=1;strokeWidth=0;" vertex="1" parent="aYfPXwyvseCjfm_76mP0-130">
          <mxGeometry x="5" y="22" width="144" height="58" as="geometry" />
        </mxCell>
        <mxCell id="aYfPXwyvseCjfm_76mP0-135" value="" style="group" vertex="1" connectable="0" parent="WIyWlLk6GJQsqaUBKTNV-1">
          <mxGeometry x="646.5" y="1196" width="158" height="77" as="geometry" />
        </mxCell>
        <mxCell id="aYfPXwyvseCjfm_76mP0-133" value="&lt;b&gt;deobfuscation algorithm&lt;/b&gt;" style="rounded=0;whiteSpace=wrap;html=1;fontSize=10;dashed=1;dashPattern=1 4;strokeColor=default;verticalAlign=top;" vertex="1" parent="aYfPXwyvseCjfm_76mP0-135">
          <mxGeometry width="158" height="77" as="geometry" />
        </mxCell>
        <mxCell id="aYfPXwyvseCjfm_76mP0-134" value="&lt;div&gt;&lt;font style=&quot;font-size: 9px;&quot;&gt;deobfuscation with credential obfuscation&amp;nbsp;&lt;span style=&quot;background-color: transparent; color: light-dark(rgb(0, 0, 0), rgb(255, 255, 255));&quot;&gt;and HOTP based on setup sequence&lt;/span&gt;&lt;/font&gt;&lt;/div&gt;" style="rounded=0;whiteSpace=wrap;html=1;strokeWidth=0;" vertex="1" parent="aYfPXwyvseCjfm_76mP0-135">
          <mxGeometry x="8.5" y="20.909999999999854" width="142.12" height="46.09" as="geometry" />
        </mxCell>
        <mxCell id="aYfPXwyvseCjfm_76mP0-136" value="" style="group" vertex="1" connectable="0" parent="WIyWlLk6GJQsqaUBKTNV-1">
          <mxGeometry x="390" y="1180" width="153" height="91" as="geometry" />
        </mxCell>
        <mxCell id="aYfPXwyvseCjfm_76mP0-122" value="&lt;b&gt;obfuscation algorithm&lt;/b&gt;" style="rounded=0;whiteSpace=wrap;html=1;fontSize=10;dashed=1;dashPattern=1 4;strokeColor=default;verticalAlign=top;" vertex="1" parent="aYfPXwyvseCjfm_76mP0-136">
          <mxGeometry width="153" height="91" as="geometry" />
        </mxCell>
        <mxCell id="aYfPXwyvseCjfm_76mP0-125" value="&lt;div&gt;&lt;font style=&quot;font-size: 9px;&quot;&gt;obfuscation with credential data and&amp;nbsp;&lt;span style=&quot;background-color: transparent; color: light-dark(rgb(0, 0, 0), rgb(255, 255, 255));&quot;&gt;HOTP based on setup sequence&amp;nbsp;&lt;/span&gt;&lt;span style=&quot;background-color: transparent; color: light-dark(rgb(0, 0, 0), rgb(255, 255, 255));&quot;&gt;stores the obfuscated credential&lt;/span&gt;&lt;/font&gt;&lt;/div&gt;" style="rounded=0;whiteSpace=wrap;html=1;strokeWidth=0;" vertex="1" parent="aYfPXwyvseCjfm_76mP0-136">
          <mxGeometry x="5.689999999999998" y="22" width="142.12" height="62" as="geometry" />
        </mxCell>
        <mxCell id="aYfPXwyvseCjfm_76mP0-137" style="edgeStyle=orthogonalEdgeStyle;rounded=0;orthogonalLoop=1;jettySize=auto;html=1;exitX=0.5;exitY=1;exitDx=0;exitDy=0;entryX=0.5;entryY=0;entryDx=0;entryDy=0;dashed=1;dashPattern=1 4;endArrow=none;startFill=0;" edge="1" parent="WIyWlLk6GJQsqaUBKTNV-1" source="aYfPXwyvseCjfm_76mP0-131" target="aYfPXwyvseCjfm_76mP0-108">
          <mxGeometry relative="1" as="geometry" />
        </mxCell>
        <mxCell id="aYfPXwyvseCjfm_76mP0-140" style="edgeStyle=orthogonalEdgeStyle;rounded=0;orthogonalLoop=1;jettySize=auto;html=1;exitX=1;exitY=0.5;exitDx=0;exitDy=0;entryX=0;entryY=0.5;entryDx=0;entryDy=0;" edge="1" parent="WIyWlLk6GJQsqaUBKTNV-1" source="aYfPXwyvseCjfm_76mP0-141" target="aYfPXwyvseCjfm_76mP0-143">
          <mxGeometry relative="1" as="geometry" />
        </mxCell>
        <mxCell id="aYfPXwyvseCjfm_76mP0-141" value="&lt;font style=&quot;font-size: 16px;&quot;&gt;&lt;b&gt;NIA&lt;/b&gt;&lt;/font&gt;&lt;div&gt;&lt;font style=&quot;font-size: 16px;&quot;&gt;&lt;b&gt;Monitor&lt;/b&gt;&lt;/font&gt;&lt;/div&gt;" style="rounded=1;whiteSpace=wrap;html=1;fillColor=#f8cecc;strokeColor=#b85450;" vertex="1" parent="WIyWlLk6GJQsqaUBKTNV-1">
          <mxGeometry x="1250.5" y="610" width="90" height="60" as="geometry" />
        </mxCell>
        <mxCell id="aYfPXwyvseCjfm_76mP0-147" value="request HMAC with signature" style="text;html=1;align=center;verticalAlign=middle;whiteSpace=wrap;rounded=0;fontSize=10;" vertex="1" parent="WIyWlLk6GJQsqaUBKTNV-1">
          <mxGeometry x="1355" y="612" width="143" height="30" as="geometry" />
        </mxCell>
        <mxCell id="aYfPXwyvseCjfm_76mP0-148" value="request with&amp;nbsp;&lt;span style=&quot;background-color: transparent; color: light-dark(rgb(0, 0, 0), rgb(255, 255, 255));&quot;&gt;credential obfuscated&lt;/span&gt;" style="text;html=1;align=center;verticalAlign=middle;whiteSpace=wrap;rounded=0;fontSize=10;" vertex="1" parent="WIyWlLk6GJQsqaUBKTNV-1">
          <mxGeometry x="1333" y="637" width="187" height="30" as="geometry" />
        </mxCell>
        <mxCell id="aYfPXwyvseCjfm_76mP0-154" style="edgeStyle=orthogonalEdgeStyle;rounded=0;orthogonalLoop=1;jettySize=auto;html=1;exitX=0.5;exitY=1;exitDx=0;exitDy=0;entryX=0.5;entryY=0;entryDx=0;entryDy=0;dashed=1;dashPattern=1 4;endArrow=none;startFill=0;" edge="1" parent="WIyWlLk6GJQsqaUBKTNV-1" source="aYfPXwyvseCjfm_76mP0-162" target="aYfPXwyvseCjfm_76mP0-141">
          <mxGeometry relative="1" as="geometry" />
        </mxCell>
        <mxCell id="aYfPXwyvseCjfm_76mP0-161" value="" style="group" vertex="1" connectable="0" parent="WIyWlLk6GJQsqaUBKTNV-1">
          <mxGeometry x="1219" y="490" width="153" height="80" as="geometry" />
        </mxCell>
        <mxCell id="aYfPXwyvseCjfm_76mP0-162" value="&lt;b&gt;&amp;nbsp;authentication algoritm&lt;/b&gt;" style="rounded=0;whiteSpace=wrap;html=1;fontSize=10;dashed=1;dashPattern=1 4;strokeColor=default;fillColor=default;verticalAlign=top;align=center;" vertex="1" parent="aYfPXwyvseCjfm_76mP0-161">
          <mxGeometry width="153" height="80" as="geometry" />
        </mxCell>
        <mxCell id="aYfPXwyvseCjfm_76mP0-163" value="&lt;div&gt;&lt;font style=&quot;font-size: 9px;&quot;&gt;OTP, HTOP and HMAC-based&lt;/font&gt;&lt;/div&gt;&lt;div&gt;&lt;font style=&quot;font-size: 9px;&quot;&gt;&lt;font style=&quot;&quot;&gt;memory generated secret key and counter&amp;nbsp;&lt;/font&gt;&lt;span style=&quot;background-color: transparent; color: light-dark(rgb(0, 0, 0), rgb(255, 255, 255));&quot;&gt;generate HMAC A&lt;/span&gt;&lt;/font&gt;&lt;/div&gt;" style="rounded=0;whiteSpace=wrap;html=1;strokeWidth=0;" vertex="1" parent="aYfPXwyvseCjfm_76mP0-161">
          <mxGeometry x="5" y="22" width="144.12" height="50" as="geometry" />
        </mxCell>
        <mxCell id="aYfPXwyvseCjfm_76mP0-143" value="&lt;font style=&quot;font-size: 16px;&quot;&gt;&lt;b&gt;NIA&amp;nbsp;&lt;/b&gt;&lt;/font&gt;&lt;div&gt;&lt;font style=&quot;font-size: 16px;&quot;&gt;&lt;b&gt;Agent&lt;/b&gt;&lt;/font&gt;&lt;/div&gt;" style="rounded=1;whiteSpace=wrap;html=1;fillColor=#dae8fc;strokeColor=#6c8ebf;" vertex="1" parent="WIyWlLk6GJQsqaUBKTNV-1">
          <mxGeometry x="1516" y="610" width="90" height="60" as="geometry" />
        </mxCell>
        <mxCell id="aYfPXwyvseCjfm_76mP0-155" style="edgeStyle=orthogonalEdgeStyle;rounded=0;orthogonalLoop=1;jettySize=auto;html=1;exitX=0.5;exitY=1;exitDx=0;exitDy=0;entryX=0.5;entryY=0;entryDx=0;entryDy=0;endArrow=none;startFill=0;dashed=1;dashPattern=1 4;" edge="1" parent="WIyWlLk6GJQsqaUBKTNV-1" target="aYfPXwyvseCjfm_76mP0-143">
          <mxGeometry relative="1" as="geometry">
            <mxPoint x="1561" y="580" as="sourcePoint" />
          </mxGeometry>
        </mxCell>
        <mxCell id="aYfPXwyvseCjfm_76mP0-165" value="" style="group" vertex="1" connectable="0" parent="WIyWlLk6GJQsqaUBKTNV-1">
          <mxGeometry x="1490" y="490" width="153" height="90" as="geometry" />
        </mxCell>
        <mxCell id="aYfPXwyvseCjfm_76mP0-166" value="&lt;b&gt;&amp;nbsp;authentication algoritm&lt;/b&gt;" style="rounded=0;whiteSpace=wrap;html=1;fontSize=10;dashed=1;dashPattern=1 4;strokeColor=default;fillColor=default;verticalAlign=top;align=center;" vertex="1" parent="aYfPXwyvseCjfm_76mP0-165">
          <mxGeometry width="153" height="90" as="geometry" />
        </mxCell>
        <mxCell id="aYfPXwyvseCjfm_76mP0-167" value="&lt;div&gt;&lt;font style=&quot;font-size: 9px;&quot;&gt;OTP, HTOP and HMAC-based&lt;/font&gt;&lt;/div&gt;&lt;div&gt;&lt;font style=&quot;font-size: 9px;&quot;&gt;&lt;font style=&quot;&quot;&gt;memory generated secret key and counter&amp;nbsp;&lt;/font&gt;&lt;span style=&quot;background-color: transparent; color: light-dark(rgb(0, 0, 0), rgb(255, 255, 255));&quot;&gt;generate HMAC B and compares it with HMAC A&lt;/span&gt;&lt;/font&gt;&lt;/div&gt;" style="rounded=0;whiteSpace=wrap;html=1;strokeWidth=0;" vertex="1" parent="aYfPXwyvseCjfm_76mP0-165">
          <mxGeometry x="5" y="22" width="144" height="58" as="geometry" />
        </mxCell>
        <mxCell id="aYfPXwyvseCjfm_76mP0-173" style="edgeStyle=orthogonalEdgeStyle;rounded=0;orthogonalLoop=1;jettySize=auto;html=1;exitX=1;exitY=0.5;exitDx=0;exitDy=0;entryX=0;entryY=0.5;entryDx=0;entryDy=0;" edge="1" parent="WIyWlLk6GJQsqaUBKTNV-1" source="aYfPXwyvseCjfm_76mP0-174" target="aYfPXwyvseCjfm_76mP0-176">
          <mxGeometry relative="1" as="geometry" />
        </mxCell>
        <mxCell id="aYfPXwyvseCjfm_76mP0-174" value="&lt;font style=&quot;font-size: 16px;&quot;&gt;&lt;b&gt;NIA&lt;/b&gt;&lt;/font&gt;&lt;div&gt;&lt;font style=&quot;font-size: 16px;&quot;&gt;&lt;b&gt;Monitor&lt;/b&gt;&lt;/font&gt;&lt;/div&gt;" style="rounded=1;whiteSpace=wrap;html=1;fillColor=#f8cecc;strokeColor=#b85450;" vertex="1" parent="WIyWlLk6GJQsqaUBKTNV-1">
          <mxGeometry x="1371" y="855" width="90" height="60" as="geometry" />
        </mxCell>
        <mxCell id="aYfPXwyvseCjfm_76mP0-176" value="&lt;font style=&quot;font-size: 16px;&quot;&gt;&lt;b&gt;NIA&amp;nbsp;&lt;/b&gt;&lt;/font&gt;&lt;div&gt;&lt;font style=&quot;font-size: 16px;&quot;&gt;&lt;b&gt;Agent&lt;/b&gt;&lt;/font&gt;&lt;/div&gt;" style="rounded=1;whiteSpace=wrap;html=1;fillColor=#dae8fc;strokeColor=#6c8ebf;" vertex="1" parent="WIyWlLk6GJQsqaUBKTNV-1">
          <mxGeometry x="1634" y="855" width="90" height="60" as="geometry" />
        </mxCell>
        <mxCell id="aYfPXwyvseCjfm_76mP0-180" value="request HMAC with signature" style="text;html=1;align=center;verticalAlign=middle;whiteSpace=wrap;rounded=0;fontSize=10;" vertex="1" parent="WIyWlLk6GJQsqaUBKTNV-1">
          <mxGeometry x="1471.5" y="856" width="143" height="30" as="geometry" />
        </mxCell>
        <mxCell id="aYfPXwyvseCjfm_76mP0-181" value="request with&amp;nbsp;&lt;span style=&quot;background-color: transparent; color: light-dark(rgb(0, 0, 0), rgb(255, 255, 255));&quot;&gt;credential obfuscated&lt;/span&gt;" style="text;html=1;align=center;verticalAlign=middle;whiteSpace=wrap;rounded=0;fontSize=10;" vertex="1" parent="WIyWlLk6GJQsqaUBKTNV-1">
          <mxGeometry x="1461" y="884" width="167" height="30" as="geometry" />
        </mxCell>
        <mxCell id="aYfPXwyvseCjfm_76mP0-189" style="edgeStyle=orthogonalEdgeStyle;rounded=0;orthogonalLoop=1;jettySize=auto;html=1;entryX=0.5;entryY=1;entryDx=0;entryDy=0;dashed=1;dashPattern=1 4;endArrow=none;startFill=0;" edge="1" parent="WIyWlLk6GJQsqaUBKTNV-1" source="aYfPXwyvseCjfm_76mP0-190" target="aYfPXwyvseCjfm_76mP0-174">
          <mxGeometry relative="1" as="geometry" />
        </mxCell>
        <mxCell id="aYfPXwyvseCjfm_76mP0-204" style="edgeStyle=orthogonalEdgeStyle;rounded=0;orthogonalLoop=1;jettySize=auto;html=1;entryX=0.5;entryY=0;entryDx=0;entryDy=0;dashed=1;dashPattern=1 4;endArrow=none;startFill=0;" edge="1" parent="WIyWlLk6GJQsqaUBKTNV-1" source="aYfPXwyvseCjfm_76mP0-190" target="aYfPXwyvseCjfm_76mP0-191">
          <mxGeometry relative="1" as="geometry" />
        </mxCell>
        <mxCell id="aYfPXwyvseCjfm_76mP0-190" value="&lt;b&gt;obfuscation algoritm&lt;/b&gt;" style="rounded=0;whiteSpace=wrap;html=1;fontSize=10;dashed=1;dashPattern=1 4;strokeColor=default;verticalAlign=top;" vertex="1" parent="WIyWlLk6GJQsqaUBKTNV-1">
          <mxGeometry x="1339.5" y="959" width="150.5" height="91" as="geometry" />
        </mxCell>
        <mxCell id="aYfPXwyvseCjfm_76mP0-191" value="&lt;font style=&quot;font-size: 15px;&quot;&gt;Password Vault&lt;/font&gt;" style="ellipse;whiteSpace=wrap;html=1;fillColor=#d5e8d4;strokeColor=#82b366;" vertex="1" parent="WIyWlLk6GJQsqaUBKTNV-1">
          <mxGeometry x="1505.75" y="1043" width="77.5" height="70" as="geometry" />
        </mxCell>
        <mxCell id="aYfPXwyvseCjfm_76mP0-193" value="&lt;div&gt;&lt;font style=&quot;font-size: 9px;&quot;&gt;obfuscation with credential data and&amp;nbsp;&lt;span style=&quot;background-color: transparent; color: light-dark(rgb(0, 0, 0), rgb(255, 255, 255));&quot;&gt;HOTP based on setup sequence&amp;nbsp;&lt;/span&gt;&lt;span style=&quot;background-color: transparent; color: light-dark(rgb(0, 0, 0), rgb(255, 255, 255));&quot;&gt;stores the obfuscated credential&lt;/span&gt;&lt;/font&gt;&lt;/div&gt;" style="rounded=0;whiteSpace=wrap;html=1;strokeWidth=0;" vertex="1" parent="WIyWlLk6GJQsqaUBKTNV-1">
          <mxGeometry x="1343.19" y="981" width="142.12" height="62" as="geometry" />
        </mxCell>
        <mxCell id="aYfPXwyvseCjfm_76mP0-197" style="edgeStyle=orthogonalEdgeStyle;rounded=0;orthogonalLoop=1;jettySize=auto;html=1;exitX=0.5;exitY=1;exitDx=0;exitDy=0;entryX=0.461;entryY=-0.025;entryDx=0;entryDy=0;entryPerimeter=0;dashed=1;dashPattern=1 4;endArrow=none;startFill=0;" edge="1" parent="WIyWlLk6GJQsqaUBKTNV-1" source="aYfPXwyvseCjfm_76mP0-176" target="aYfPXwyvseCjfm_76mP0-201">
          <mxGeometry relative="1" as="geometry" />
        </mxCell>
        <mxCell id="aYfPXwyvseCjfm_76mP0-201" value="&lt;b&gt;deobfuscation algoritm&lt;/b&gt;" style="rounded=0;whiteSpace=wrap;html=1;fontSize=10;dashed=1;dashPattern=1 4;strokeColor=default;verticalAlign=top;" vertex="1" parent="WIyWlLk6GJQsqaUBKTNV-1">
          <mxGeometry x="1606" y="958" width="158" height="77" as="geometry" />
        </mxCell>
        <mxCell id="aYfPXwyvseCjfm_76mP0-202" value="&lt;div&gt;&lt;font style=&quot;font-size: 9px;&quot;&gt;deobfuscation with credential obfuscation&amp;nbsp;&lt;span style=&quot;background-color: transparent; color: light-dark(rgb(0, 0, 0), rgb(255, 255, 255));&quot;&gt;and HOTP based on setup sequence&lt;/span&gt;&lt;/font&gt;&lt;/div&gt;" style="rounded=0;whiteSpace=wrap;html=1;strokeWidth=0;" vertex="1" parent="WIyWlLk6GJQsqaUBKTNV-1">
          <mxGeometry x="1614.5" y="978.91" width="142.12" height="46.09" as="geometry" />
        </mxCell>
        <mxCell id="aYfPXwyvseCjfm_76mP0-205" value="" style="group" vertex="1" connectable="0" parent="WIyWlLk6GJQsqaUBKTNV-1">
          <mxGeometry x="261" y="440" width="639" height="410" as="geometry" />
        </mxCell>
        <mxCell id="aYfPXwyvseCjfm_76mP0-46" style="edgeStyle=orthogonalEdgeStyle;rounded=0;orthogonalLoop=1;jettySize=auto;html=1;exitX=1;exitY=0.5;exitDx=0;exitDy=0;" edge="1" parent="aYfPXwyvseCjfm_76mP0-205" source="aYfPXwyvseCjfm_76mP0-47" target="aYfPXwyvseCjfm_76mP0-49">
          <mxGeometry relative="1" as="geometry" />
        </mxCell>
        <mxCell id="aYfPXwyvseCjfm_76mP0-47" value="&lt;font style=&quot;font-size: 16px;&quot;&gt;Application&lt;/font&gt;" style="rounded=1;whiteSpace=wrap;html=1;fillColor=#dae8fc;strokeColor=#6c8ebf;" vertex="1" parent="aYfPXwyvseCjfm_76mP0-205">
          <mxGeometry x="15" y="120" width="90" height="60" as="geometry" />
        </mxCell>
        <mxCell id="aYfPXwyvseCjfm_76mP0-48" style="edgeStyle=orthogonalEdgeStyle;rounded=0;orthogonalLoop=1;jettySize=auto;html=1;exitX=1;exitY=0.5;exitDx=0;exitDy=0;entryX=0;entryY=0.5;entryDx=0;entryDy=0;" edge="1" parent="aYfPXwyvseCjfm_76mP0-205" source="aYfPXwyvseCjfm_76mP0-49" target="aYfPXwyvseCjfm_76mP0-51">
          <mxGeometry relative="1" as="geometry" />
        </mxCell>
        <mxCell id="aYfPXwyvseCjfm_76mP0-49" value="&lt;font style=&quot;font-size: 16px;&quot;&gt;&lt;b&gt;NIA&lt;/b&gt;&lt;/font&gt;&lt;div&gt;&lt;font style=&quot;font-size: 16px;&quot;&gt;&lt;b&gt;Monitor&lt;/b&gt;&lt;/font&gt;&lt;/div&gt;" style="rounded=1;whiteSpace=wrap;html=1;fillColor=#f8cecc;strokeColor=#b85450;" vertex="1" parent="aYfPXwyvseCjfm_76mP0-205">
          <mxGeometry x="181" y="120" width="90" height="60" as="geometry" />
        </mxCell>
        <mxCell id="aYfPXwyvseCjfm_76mP0-50" style="edgeStyle=orthogonalEdgeStyle;rounded=0;orthogonalLoop=1;jettySize=auto;html=1;exitX=1;exitY=0.5;exitDx=0;exitDy=0;" edge="1" parent="aYfPXwyvseCjfm_76mP0-205" source="aYfPXwyvseCjfm_76mP0-51" target="aYfPXwyvseCjfm_76mP0-53">
          <mxGeometry relative="1" as="geometry" />
        </mxCell>
        <mxCell id="aYfPXwyvseCjfm_76mP0-51" value="&lt;font style=&quot;font-size: 16px;&quot;&gt;&lt;b&gt;NIA&amp;nbsp;&lt;/b&gt;&lt;/font&gt;&lt;div&gt;&lt;font style=&quot;font-size: 16px;&quot;&gt;&lt;b&gt;Agent&lt;/b&gt;&lt;/font&gt;&lt;/div&gt;" style="rounded=1;whiteSpace=wrap;html=1;fillColor=#f8cecc;strokeColor=#b85450;" vertex="1" parent="aYfPXwyvseCjfm_76mP0-205">
          <mxGeometry x="376" y="120" width="90" height="60" as="geometry" />
        </mxCell>
        <mxCell id="aYfPXwyvseCjfm_76mP0-52" style="edgeStyle=orthogonalEdgeStyle;rounded=0;orthogonalLoop=1;jettySize=auto;html=1;exitX=0.5;exitY=1;exitDx=0;exitDy=0;entryX=0.5;entryY=1;entryDx=0;entryDy=0;dashed=1;" edge="1" parent="aYfPXwyvseCjfm_76mP0-205" source="aYfPXwyvseCjfm_76mP0-53" target="aYfPXwyvseCjfm_76mP0-47">
          <mxGeometry relative="1" as="geometry">
            <Array as="points">
              <mxPoint x="594" y="200" />
              <mxPoint x="60" y="200" />
            </Array>
          </mxGeometry>
        </mxCell>
        <mxCell id="aYfPXwyvseCjfm_76mP0-53" value="&lt;font style=&quot;font-size: 16px;&quot;&gt;Resource&lt;/font&gt;" style="rounded=1;whiteSpace=wrap;html=1;fillColor=#dae8fc;strokeColor=#6c8ebf;" vertex="1" parent="aYfPXwyvseCjfm_76mP0-205">
          <mxGeometry x="549" y="120" width="90" height="60" as="geometry" />
        </mxCell>
        <mxCell id="aYfPXwyvseCjfm_76mP0-54" value="request access resource" style="text;html=1;align=center;verticalAlign=middle;whiteSpace=wrap;rounded=0;fontSize=10;" vertex="1" parent="aYfPXwyvseCjfm_76mP0-205">
          <mxGeometry x="99" y="120" width="89" height="30" as="geometry" />
        </mxCell>
        <mxCell id="aYfPXwyvseCjfm_76mP0-55" value="request HMAC with signature" style="text;html=1;align=center;verticalAlign=middle;whiteSpace=wrap;rounded=0;fontSize=10;" vertex="1" parent="aYfPXwyvseCjfm_76mP0-205">
          <mxGeometry x="267" y="120" width="110" height="30" as="geometry" />
        </mxCell>
        <mxCell id="aYfPXwyvseCjfm_76mP0-56" value="request with&amp;nbsp;&lt;div&gt;&lt;span style=&quot;background-color: transparent; color: light-dark(rgb(0, 0, 0), rgb(255, 255, 255));&quot;&gt;credential obfuscated&lt;/span&gt;&lt;/div&gt;" style="text;html=1;align=center;verticalAlign=middle;whiteSpace=wrap;rounded=0;fontSize=10;" vertex="1" parent="aYfPXwyvseCjfm_76mP0-205">
          <mxGeometry x="263" y="150" width="120" height="30" as="geometry" />
        </mxCell>
        <mxCell id="aYfPXwyvseCjfm_76mP0-57" value="validate HMAC&amp;nbsp;" style="text;html=1;align=center;verticalAlign=middle;whiteSpace=wrap;rounded=0;fontSize=10;" vertex="1" parent="aYfPXwyvseCjfm_76mP0-205">
          <mxGeometry x="463" y="126" width="89" height="30" as="geometry" />
        </mxCell>
        <mxCell id="aYfPXwyvseCjfm_76mP0-58" value="request resource" style="text;html=1;align=center;verticalAlign=middle;whiteSpace=wrap;rounded=0;fontSize=10;" vertex="1" parent="aYfPXwyvseCjfm_76mP0-205">
          <mxGeometry x="462" y="146" width="89" height="26" as="geometry" />
        </mxCell>
        <mxCell id="aYfPXwyvseCjfm_76mP0-59" value="active connection" style="text;html=1;align=center;verticalAlign=middle;whiteSpace=wrap;rounded=0;fontSize=10;" vertex="1" parent="aYfPXwyvseCjfm_76mP0-205">
          <mxGeometry x="279" y="193" width="89" height="30" as="geometry" />
        </mxCell>
        <mxCell id="aYfPXwyvseCjfm_76mP0-102" style="edgeStyle=orthogonalEdgeStyle;rounded=0;orthogonalLoop=1;jettySize=auto;html=1;exitX=0.5;exitY=1;exitDx=0;exitDy=0;entryX=0.5;entryY=0;entryDx=0;entryDy=0;dashed=1;dashPattern=1 4;endArrow=none;startFill=0;" edge="1" parent="aYfPXwyvseCjfm_76mP0-205" source="aYfPXwyvseCjfm_76mP0-60" target="aYfPXwyvseCjfm_76mP0-47">
          <mxGeometry relative="1" as="geometry" />
        </mxCell>
        <mxCell id="aYfPXwyvseCjfm_76mP0-60" value="&lt;font style=&quot;font-size: 9px;&quot;&gt;non-interactive process generated by a request from the client&lt;/font&gt;" style="rounded=0;whiteSpace=wrap;html=1;fontSize=10;dashed=1;dashPattern=1 4;strokeColor=default;" vertex="1" parent="aYfPXwyvseCjfm_76mP0-205">
          <mxGeometry y="50" width="120" height="40" as="geometry" />
        </mxCell>
        <mxCell id="aYfPXwyvseCjfm_76mP0-61" style="edgeStyle=orthogonalEdgeStyle;rounded=0;orthogonalLoop=1;jettySize=auto;html=1;exitX=0.5;exitY=1;exitDx=0;exitDy=0;entryX=0.5;entryY=0;entryDx=0;entryDy=0;dashed=1;dashPattern=1 4;endArrow=none;startFill=0;" edge="1" parent="aYfPXwyvseCjfm_76mP0-205" source="aYfPXwyvseCjfm_76mP0-62" target="aYfPXwyvseCjfm_76mP0-49">
          <mxGeometry relative="1" as="geometry" />
        </mxCell>
        <mxCell id="aYfPXwyvseCjfm_76mP0-63" style="edgeStyle=orthogonalEdgeStyle;rounded=0;orthogonalLoop=1;jettySize=auto;html=1;exitX=0.5;exitY=1;exitDx=0;exitDy=0;entryX=0.5;entryY=0;entryDx=0;entryDy=0;endArrow=none;startFill=0;dashed=1;dashPattern=1 4;" edge="1" parent="aYfPXwyvseCjfm_76mP0-205" target="aYfPXwyvseCjfm_76mP0-51">
          <mxGeometry relative="1" as="geometry">
            <mxPoint x="421" y="90" as="sourcePoint" />
          </mxGeometry>
        </mxCell>
        <mxCell id="aYfPXwyvseCjfm_76mP0-65" style="edgeStyle=orthogonalEdgeStyle;rounded=0;orthogonalLoop=1;jettySize=auto;html=1;entryX=0.5;entryY=1;entryDx=0;entryDy=0;dashed=1;dashPattern=1 4;endArrow=none;startFill=0;" edge="1" parent="aYfPXwyvseCjfm_76mP0-205" source="aYfPXwyvseCjfm_76mP0-67" target="aYfPXwyvseCjfm_76mP0-49">
          <mxGeometry relative="1" as="geometry" />
        </mxCell>
        <mxCell id="aYfPXwyvseCjfm_76mP0-67" value="&lt;b&gt;obfuscation algoritm&lt;/b&gt;" style="rounded=0;whiteSpace=wrap;html=1;fontSize=10;dashed=1;dashPattern=1 4;strokeColor=default;verticalAlign=top;" vertex="1" parent="aYfPXwyvseCjfm_76mP0-205">
          <mxGeometry x="149.5" y="224" width="153" height="91" as="geometry" />
        </mxCell>
        <mxCell id="aYfPXwyvseCjfm_76mP0-70" value="&lt;font style=&quot;font-size: 15px;&quot;&gt;Password Vault&lt;/font&gt;" style="ellipse;whiteSpace=wrap;html=1;fillColor=#dae8fc;strokeColor=#6c8ebf;" vertex="1" parent="aYfPXwyvseCjfm_76mP0-205">
          <mxGeometry x="188" y="340" width="77.5" height="70" as="geometry" />
        </mxCell>
        <mxCell id="aYfPXwyvseCjfm_76mP0-101" style="edgeStyle=orthogonalEdgeStyle;rounded=0;orthogonalLoop=1;jettySize=auto;html=1;entryX=0.5;entryY=0;entryDx=0;entryDy=0;dashed=1;dashPattern=1 4;endArrow=none;startFill=0;" edge="1" parent="aYfPXwyvseCjfm_76mP0-205" source="aYfPXwyvseCjfm_76mP0-94" target="aYfPXwyvseCjfm_76mP0-70">
          <mxGeometry relative="1" as="geometry" />
        </mxCell>
        <mxCell id="aYfPXwyvseCjfm_76mP0-94" value="&lt;div&gt;&lt;font style=&quot;font-size: 9px;&quot;&gt;obfuscation with credential data and&amp;nbsp;&lt;span style=&quot;background-color: transparent; color: light-dark(rgb(0, 0, 0), rgb(255, 255, 255));&quot;&gt;HOTP based on setup sequence&amp;nbsp;&lt;/span&gt;&lt;span style=&quot;background-color: transparent; color: light-dark(rgb(0, 0, 0), rgb(255, 255, 255));&quot;&gt;stores the obfuscated credential&lt;/span&gt;&lt;/font&gt;&lt;/div&gt;" style="rounded=0;whiteSpace=wrap;html=1;strokeWidth=0;" vertex="1" parent="aYfPXwyvseCjfm_76mP0-205">
          <mxGeometry x="155.19" y="246" width="142.12" height="62" as="geometry" />
        </mxCell>
        <mxCell id="aYfPXwyvseCjfm_76mP0-96" value="" style="group" vertex="1" connectable="0" parent="aYfPXwyvseCjfm_76mP0-205">
          <mxGeometry x="149" width="153" height="80" as="geometry" />
        </mxCell>
        <mxCell id="aYfPXwyvseCjfm_76mP0-62" value="&lt;b&gt;&amp;nbsp;authentication algoritm&lt;/b&gt;" style="rounded=0;whiteSpace=wrap;html=1;fontSize=10;dashed=1;dashPattern=1 4;strokeColor=default;fillColor=default;verticalAlign=top;align=center;" vertex="1" parent="aYfPXwyvseCjfm_76mP0-96">
          <mxGeometry width="153" height="80" as="geometry" />
        </mxCell>
        <mxCell id="aYfPXwyvseCjfm_76mP0-91" value="&lt;div&gt;&lt;font style=&quot;font-size: 9px;&quot;&gt;OTP, HTOP and HMAC-based&lt;/font&gt;&lt;/div&gt;&lt;div&gt;&lt;font style=&quot;font-size: 9px;&quot;&gt;&lt;font style=&quot;&quot;&gt;memory generated secret key and counter&amp;nbsp;&lt;/font&gt;&lt;span style=&quot;background-color: transparent; color: light-dark(rgb(0, 0, 0), rgb(255, 255, 255));&quot;&gt;generate HMAC A&lt;/span&gt;&lt;/font&gt;&lt;/div&gt;" style="rounded=0;whiteSpace=wrap;html=1;strokeWidth=0;" vertex="1" parent="aYfPXwyvseCjfm_76mP0-96">
          <mxGeometry x="5" y="22" width="144.12" height="50" as="geometry" />
        </mxCell>
        <mxCell id="aYfPXwyvseCjfm_76mP0-99" style="edgeStyle=orthogonalEdgeStyle;rounded=0;orthogonalLoop=1;jettySize=auto;html=1;exitX=0.5;exitY=1;exitDx=0;exitDy=0;entryX=0.461;entryY=-0.025;entryDx=0;entryDy=0;entryPerimeter=0;dashed=1;dashPattern=1 4;endArrow=none;startFill=0;" edge="1" parent="aYfPXwyvseCjfm_76mP0-205" source="aYfPXwyvseCjfm_76mP0-51" target="aYfPXwyvseCjfm_76mP0-69">
          <mxGeometry relative="1" as="geometry" />
        </mxCell>
        <mxCell id="aYfPXwyvseCjfm_76mP0-100" value="" style="group" vertex="1" connectable="0" parent="aYfPXwyvseCjfm_76mP0-205">
          <mxGeometry x="350" width="153" height="90" as="geometry" />
        </mxCell>
        <mxCell id="aYfPXwyvseCjfm_76mP0-92" value="&lt;b&gt;&amp;nbsp;authentication algoritm&lt;/b&gt;" style="rounded=0;whiteSpace=wrap;html=1;fontSize=10;dashed=1;dashPattern=1 4;strokeColor=default;fillColor=default;verticalAlign=top;align=center;" vertex="1" parent="aYfPXwyvseCjfm_76mP0-100">
          <mxGeometry width="153" height="90" as="geometry" />
        </mxCell>
        <mxCell id="aYfPXwyvseCjfm_76mP0-93" value="&lt;div&gt;&lt;font style=&quot;font-size: 9px;&quot;&gt;OTP, HTOP and HMAC-based&lt;/font&gt;&lt;/div&gt;&lt;div&gt;&lt;font style=&quot;font-size: 9px;&quot;&gt;&lt;font style=&quot;&quot;&gt;memory generated secret key and counter&amp;nbsp;&lt;/font&gt;&lt;span style=&quot;background-color: transparent; color: light-dark(rgb(0, 0, 0), rgb(255, 255, 255));&quot;&gt;generate HMAC B and compares it with HMAC A&lt;/span&gt;&lt;/font&gt;&lt;/div&gt;" style="rounded=0;whiteSpace=wrap;html=1;strokeWidth=0;" vertex="1" parent="aYfPXwyvseCjfm_76mP0-100">
          <mxGeometry x="5" y="22" width="144" height="58" as="geometry" />
        </mxCell>
        <mxCell id="aYfPXwyvseCjfm_76mP0-69" value="&lt;b&gt;deobfuscation algoritm&lt;/b&gt;" style="rounded=0;whiteSpace=wrap;html=1;fontSize=10;dashed=1;dashPattern=1 4;strokeColor=default;verticalAlign=top;" vertex="1" parent="aYfPXwyvseCjfm_76mP0-205">
          <mxGeometry x="348" y="223" width="158" height="77" as="geometry" />
        </mxCell>
        <mxCell id="aYfPXwyvseCjfm_76mP0-95" value="&lt;div&gt;&lt;font style=&quot;font-size: 9px;&quot;&gt;deobfuscation with credential obfuscation&amp;nbsp;&lt;span style=&quot;background-color: transparent; color: light-dark(rgb(0, 0, 0), rgb(255, 255, 255));&quot;&gt;and HOTP based on setup sequence&lt;/span&gt;&lt;/font&gt;&lt;/div&gt;" style="rounded=0;whiteSpace=wrap;html=1;strokeWidth=0;" vertex="1" parent="aYfPXwyvseCjfm_76mP0-205">
          <mxGeometry x="356.5" y="243.90999999999997" width="142.12" height="46.09" as="geometry" />
        </mxCell>
        <mxCell id="aYfPXwyvseCjfm_76mP0-267" value="" style="group" vertex="1" connectable="0" parent="WIyWlLk6GJQsqaUBKTNV-1">
          <mxGeometry x="1374" y="50" width="456" height="403" as="geometry" />
        </mxCell>
        <mxCell id="aYfPXwyvseCjfm_76mP0-265" value="" style="rounded=0;whiteSpace=wrap;html=1;" vertex="1" parent="aYfPXwyvseCjfm_76mP0-267">
          <mxGeometry width="456" height="403" as="geometry" />
        </mxCell>
        <mxCell id="aYfPXwyvseCjfm_76mP0-263" value="" style="rounded=1;whiteSpace=wrap;html=1;dashed=1;dashPattern=1 4;" vertex="1" parent="aYfPXwyvseCjfm_76mP0-267">
          <mxGeometry x="21" y="258" width="205" height="102" as="geometry" />
        </mxCell>
        <mxCell id="aYfPXwyvseCjfm_76mP0-238" value="" style="sketch=0;pointerEvents=1;shadow=0;dashed=0;html=1;strokeColor=none;fillColor=#434445;aspect=fixed;labelPosition=center;verticalLabelPosition=bottom;verticalAlign=top;align=center;outlineConnect=0;shape=mxgraph.vvd.virtual_machine;" vertex="1" parent="aYfPXwyvseCjfm_76mP0-267">
          <mxGeometry x="27.5" y="270" width="50" height="50" as="geometry" />
        </mxCell>
        <mxCell id="aYfPXwyvseCjfm_76mP0-239" value="" style="sketch=0;pointerEvents=1;shadow=0;dashed=0;html=1;strokeColor=none;fillColor=#434445;aspect=fixed;labelPosition=center;verticalLabelPosition=bottom;verticalAlign=top;align=center;outlineConnect=0;shape=mxgraph.vvd.virtual_machine;" vertex="1" parent="aYfPXwyvseCjfm_76mP0-267">
          <mxGeometry x="97.5" y="270" width="50" height="50" as="geometry" />
        </mxCell>
        <mxCell id="aYfPXwyvseCjfm_76mP0-240" value="" style="sketch=0;pointerEvents=1;shadow=0;dashed=0;html=1;strokeColor=none;fillColor=#434445;aspect=fixed;labelPosition=center;verticalLabelPosition=bottom;verticalAlign=top;align=center;outlineConnect=0;shape=mxgraph.vvd.virtual_machine;" vertex="1" parent="aYfPXwyvseCjfm_76mP0-267">
          <mxGeometry x="167.5" y="270" width="50" height="50" as="geometry" />
        </mxCell>
        <mxCell id="aYfPXwyvseCjfm_76mP0-258" style="edgeStyle=orthogonalEdgeStyle;rounded=0;orthogonalLoop=1;jettySize=auto;html=1;" edge="1" parent="aYfPXwyvseCjfm_76mP0-267" source="aYfPXwyvseCjfm_76mP0-241">
          <mxGeometry relative="1" as="geometry">
            <mxPoint x="286" y="145" as="targetPoint" />
          </mxGeometry>
        </mxCell>
        <mxCell id="aYfPXwyvseCjfm_76mP0-255" value="" style="group" vertex="1" connectable="0" parent="aYfPXwyvseCjfm_76mP0-267">
          <mxGeometry x="296" y="10" width="142" height="223" as="geometry" />
        </mxCell>
        <mxCell id="aYfPXwyvseCjfm_76mP0-253" value="" style="group" vertex="1" connectable="0" parent="aYfPXwyvseCjfm_76mP0-255">
          <mxGeometry x="40.00000000000023" width="60" height="65" as="geometry" />
        </mxCell>
        <mxCell id="aYfPXwyvseCjfm_76mP0-242" value="" style="sketch=0;outlineConnect=0;fontColor=#232F3E;gradientColor=none;strokeColor=#232F3E;fillColor=#ffffff;dashed=0;verticalLabelPosition=bottom;verticalAlign=top;align=center;html=1;fontSize=12;fontStyle=0;aspect=fixed;shape=mxgraph.aws4.resourceIcon;resIcon=mxgraph.aws4.container_1;" vertex="1" parent="aYfPXwyvseCjfm_76mP0-253">
          <mxGeometry x="2.869999999999891" y="-2" width="54.25" height="54.25" as="geometry" />
        </mxCell>
        <mxCell id="aYfPXwyvseCjfm_76mP0-245" value="&lt;b&gt;&lt;font style=&quot;font-size: 14px;&quot;&gt;Containers&lt;/font&gt;&lt;/b&gt;" style="text;html=1;align=center;verticalAlign=middle;whiteSpace=wrap;rounded=0;" vertex="1" parent="aYfPXwyvseCjfm_76mP0-253">
          <mxGeometry y="35" width="60" height="30" as="geometry" />
        </mxCell>
        <mxCell id="aYfPXwyvseCjfm_76mP0-254" value="" style="group" vertex="1" connectable="0" parent="aYfPXwyvseCjfm_76mP0-255">
          <mxGeometry y="63" width="142" height="160" as="geometry" />
        </mxCell>
        <mxCell id="aYfPXwyvseCjfm_76mP0-247" value="App Web GLPI" style="rounded=0;whiteSpace=wrap;html=1;" vertex="1" parent="aYfPXwyvseCjfm_76mP0-254">
          <mxGeometry width="142" height="20" as="geometry" />
        </mxCell>
        <mxCell id="aYfPXwyvseCjfm_76mP0-248" value="SGBD MariaDB" style="rounded=0;whiteSpace=wrap;html=1;" vertex="1" parent="aYfPXwyvseCjfm_76mP0-254">
          <mxGeometry y="27" width="142" height="20" as="geometry" />
        </mxCell>
        <mxCell id="aYfPXwyvseCjfm_76mP0-249" value="Proxy Nginx" style="rounded=0;whiteSpace=wrap;html=1;" vertex="1" parent="aYfPXwyvseCjfm_76mP0-254">
          <mxGeometry y="54" width="142" height="20" as="geometry" />
        </mxCell>
        <mxCell id="aYfPXwyvseCjfm_76mP0-250" value="Storage NAS" style="rounded=0;whiteSpace=wrap;html=1;" vertex="1" parent="aYfPXwyvseCjfm_76mP0-254">
          <mxGeometry y="82" width="142" height="20" as="geometry" />
        </mxCell>
        <mxCell id="aYfPXwyvseCjfm_76mP0-251" value="Safe Credential" style="rounded=0;whiteSpace=wrap;html=1;" vertex="1" parent="aYfPXwyvseCjfm_76mP0-254">
          <mxGeometry y="111" width="142" height="20" as="geometry" />
        </mxCell>
        <mxCell id="aYfPXwyvseCjfm_76mP0-252" value="Backup Server" style="rounded=0;whiteSpace=wrap;html=1;" vertex="1" parent="aYfPXwyvseCjfm_76mP0-254">
          <mxGeometry y="140" width="142" height="20" as="geometry" />
        </mxCell>
        <mxCell id="aYfPXwyvseCjfm_76mP0-241" value="" style="sketch=0;pointerEvents=1;shadow=0;dashed=0;html=1;strokeColor=none;fillColor=#434445;aspect=fixed;labelPosition=center;verticalLabelPosition=bottom;verticalAlign=top;align=center;outlineConnect=0;shape=mxgraph.vvd.machine;" vertex="1" parent="aYfPXwyvseCjfm_76mP0-267">
          <mxGeometry x="108.14999999999986" y="110" width="28.7" height="70" as="geometry" />
        </mxCell>
        <mxCell id="aYfPXwyvseCjfm_76mP0-262" style="edgeStyle=orthogonalEdgeStyle;rounded=0;orthogonalLoop=1;jettySize=auto;html=1;" edge="1" parent="aYfPXwyvseCjfm_76mP0-267" source="aYfPXwyvseCjfm_76mP0-256">
          <mxGeometry relative="1" as="geometry">
            <mxPoint x="122.5" y="250" as="targetPoint" />
          </mxGeometry>
        </mxCell>
        <mxCell id="aYfPXwyvseCjfm_76mP0-256" value="Terraform" style="text;html=1;align=center;verticalAlign=middle;whiteSpace=wrap;rounded=0;fontStyle=1;fontSize=16;" vertex="1" parent="aYfPXwyvseCjfm_76mP0-267">
          <mxGeometry x="92.5" y="180" width="60" height="30" as="geometry" />
        </mxCell>
        <mxCell id="aYfPXwyvseCjfm_76mP0-259" value="&lt;span style=&quot;color: rgb(0, 0, 0); font-family: Helvetica; font-size: 12px; font-style: normal; font-variant-ligatures: normal; font-variant-caps: normal; font-weight: 400; letter-spacing: normal; orphans: 2; text-align: center; text-indent: 0px; text-transform: none; widows: 2; word-spacing: 0px; -webkit-text-stroke-width: 0px; white-space: normal; background-color: rgb(251, 251, 251); text-decoration-thickness: initial; text-decoration-style: initial; text-decoration-color: initial; float: none; display: inline !important;&quot;&gt;Vault&lt;/span&gt;" style="text;whiteSpace=wrap;html=1;" vertex="1" parent="aYfPXwyvseCjfm_76mP0-267">
          <mxGeometry x="35" y="318" width="41" height="30" as="geometry" />
        </mxCell>
        <mxCell id="aYfPXwyvseCjfm_76mP0-260" value="&lt;span style=&quot;color: rgb(0, 0, 0); font-family: Helvetica; font-size: 12px; font-style: normal; font-variant-ligatures: normal; font-variant-caps: normal; font-weight: 400; letter-spacing: normal; orphans: 2; text-align: center; text-indent: 0px; text-transform: none; widows: 2; word-spacing: 0px; -webkit-text-stroke-width: 0px; white-space: normal; background-color: rgb(251, 251, 251); text-decoration-thickness: initial; text-decoration-style: initial; text-decoration-color: initial; float: none; display: inline !important;&quot;&gt;Pfsense&lt;/span&gt;" style="text;whiteSpace=wrap;html=1;" vertex="1" parent="aYfPXwyvseCjfm_76mP0-267">
          <mxGeometry x="100" y="319" width="41" height="30" as="geometry" />
        </mxCell>
        <mxCell id="aYfPXwyvseCjfm_76mP0-261" value="&lt;span style=&quot;color: rgb(0, 0, 0); font-family: Helvetica; font-size: 12px; font-style: normal; font-variant-ligatures: normal; font-variant-caps: normal; font-weight: 400; letter-spacing: normal; orphans: 2; text-align: center; text-indent: 0px; text-transform: none; widows: 2; word-spacing: 0px; -webkit-text-stroke-width: 0px; white-space: normal; background-color: rgb(251, 251, 251); text-decoration-thickness: initial; text-decoration-style: initial; text-decoration-color: initial; float: none; display: inline !important;&quot;&gt;&amp;nbsp;Kali&lt;/span&gt;&lt;div&gt;&lt;span style=&quot;color: rgb(0, 0, 0); font-family: Helvetica; font-size: 12px; font-style: normal; font-variant-ligatures: normal; font-variant-caps: normal; font-weight: 400; letter-spacing: normal; orphans: 2; text-align: center; text-indent: 0px; text-transform: none; widows: 2; word-spacing: 0px; -webkit-text-stroke-width: 0px; white-space: normal; background-color: rgb(251, 251, 251); text-decoration-thickness: initial; text-decoration-style: initial; text-decoration-color: initial; float: none; display: inline !important;&quot;&gt;Linux&lt;/span&gt;&lt;/div&gt;" style="text;whiteSpace=wrap;html=1;" vertex="1" parent="aYfPXwyvseCjfm_76mP0-267">
          <mxGeometry x="176.5" y="318" width="41" height="30" as="geometry" />
        </mxCell>
        <mxCell id="aYfPXwyvseCjfm_76mP0-264" value="&lt;b style=&quot;forced-color-adjust: none; color: rgb(0, 0, 0); font-family: Helvetica; font-size: 12px; font-style: normal; font-variant-ligatures: normal; font-variant-caps: normal; letter-spacing: normal; orphans: 2; text-align: center; text-indent: 0px; text-transform: none; widows: 2; word-spacing: 0px; -webkit-text-stroke-width: 0px; white-space: normal; background-color: rgb(251, 251, 251); text-decoration-thickness: initial; text-decoration-style: initial; text-decoration-color: initial;&quot;&gt;&lt;font style=&quot;forced-color-adjust: none; font-size: 14px;&quot;&gt;KVM - Virtual Machines&lt;/font&gt;&lt;/b&gt;" style="text;whiteSpace=wrap;html=1;" vertex="1" parent="aYfPXwyvseCjfm_76mP0-267">
          <mxGeometry x="43.25" y="360" width="160" height="40" as="geometry" />
        </mxCell>
        <mxCell id="aYfPXwyvseCjfm_76mP0-266" value="provisioned by infrastructure as code" style="text;html=1;align=center;verticalAlign=middle;whiteSpace=wrap;rounded=0;fontStyle=1;fontSize=21;" vertex="1" parent="aYfPXwyvseCjfm_76mP0-267">
          <mxGeometry x="21" y="30" width="233.15" height="30" as="geometry" />
        </mxCell>
      </root>
    </mxGraphModel>
  </diagram>
</mxfile>
